# xmcd
#
# Track frame offsets: 
#        150
#        23010
#        48313
#        73046
#        111198
#        151007
#        179292
#        207595
#        242612
#
# Disc length: 3539 seconds
#
# Revision: 0
# Processed by: cddbd v1.5.2PL0 Copyright (c) Steve Scherf et al.
# Submitted via: ExactAudioCopy v1.3
#
DISCID=710dd109
DTITLE=Joel Frahm and Bruce Katz - Project A
DYEAR=2009
DGENRE=Blues, Jazz
TTITLE0=The House That Jack Built
TTITLE1=Love The One You're With
TTITLE2=Don't Play That Song
TTITLE3=Spirit In The Dark
TTITLE4=It Ain't Fair
TTITLE5=Maybe I'm A Fool
TTITLE6=What A Friend We Have In Jesus
TTITLE7=Rock Steady
TTITLE8=Packing Up, Getting Ready To Go
EXTD=
EXTT0=
EXTT1=
EXTT2=
EXTT3=
EXTT4=
EXTT5=
EXTT6=
EXTT7=
EXTT8=
PLAYORDER=
